<?xml version="1.0" encoding="UTF-8"?>
<!DOCTYPE svg PUBLIC "-//W3C//DTD SVG 1.1//EN" "http://www.w3.org/Graphics/SVG/1.1/DTD/svg11.dtd">
<svg xmlns="http://www.w3.org/2000/svg" version="1.1" width="64px" height="64px" style="shape-rendering:geometricPrecision; text-rendering:geometricPrecision; image-rendering:optimizeQuality; fill-rule:evenodd; clip-rule:evenodd" xmlns:xlink="http://www.w3.org/1999/xlink">
<g><path style="opacity:0.971" fill="#38ff13" d="M 30.5,2.5 C 31.3764,2.36912 32.0431,2.70245 32.5,3.5C 35.1667,8.83333 37.8333,14.1667 40.5,19.5C 47.4394,21.2701 54.4394,22.9368 61.5,24.5C 57.1819,29.3185 52.6819,33.9852 48,38.5C 48.3903,45.5183 49.2237,52.5183 50.5,59.5C 43.9865,57.0136 37.6532,54.0136 31.5,50.5C 25.528,54.3199 19.1946,57.3199 12.5,59.5C 13.7763,52.5183 14.6097,45.5183 15,38.5C 10.3181,33.9852 5.81807,29.3185 1.5,24.5C 8.59421,23.1082 15.5942,21.4415 22.5,19.5C 25.4513,13.9323 28.118,8.26565 30.5,2.5 Z"/></g>
</svg>
